<svg width="64" height="48" viewBox="0 0 64 48" fill="none" xmlns="http://www.w3.org/2000/svg">
<path d="M49.8886 9.99963L51.2697 10.9996C53.6717 12.937 55.0528 15.1244 55.353 17.6243C57.9351 17.1243 61.2378 17.4993 62.6789 18.4993L64 19.3118L63.7598 19.8117C63.3395 20.7492 63.2194 20.9992 63.1593 21.1242C60.8174 25.8115 56.1937 25.874 54.032 25.8115C48.5676 39.4984 36.9182 47.0606 21.1855 47.0606C13.9197 47.0606 8.39522 44.7482 4.67222 40.1859C-0.251743 34.1862 -0.251743 26.374 0.168596 23.8741L0.288692 23.3741H43.7037C45.9855 23.3741 47.7269 22.7491 48.5676 22.2491C47.6668 20.8742 47.3666 19.3118 47.3066 18.4368C47.1264 15.9369 47.7269 13.312 48.9279 11.4371L49.8886 9.99963ZM11.5778 15.8744V22.1241H4.97246V15.8744H11.5778ZM19.3841 15.8744V22.1241H12.7788V15.8744H19.3841ZM27.1904 15.8744V22.1241H20.585V15.8744H27.1904ZM34.9966 15.8744V22.1241H28.3913V15.8744H34.9966ZM42.8029 15.8744V22.1241H36.1976V15.8744H42.8029ZM34.9966 8.3747V14.6244H28.3913V8.3747H34.9966ZM27.1904 8.3747V14.6244H20.585V8.3747H27.1904ZM19.3841 8.3747V14.6244H12.7788V8.3747H19.3841ZM34.9966 0.875V7.12475H28.3913V0.875H34.9966Z" fill="#7B4AE2" fill-opacity="0.5"/>
</svg>
